<svg width="1496.9999999999998" height="1496.9999999999998" xmlns="http://www.w3.org/2000/svg">
 <!-- Created with Method Draw - http://github.com/duopixel/Method-Draw/ -->

 <g>
  <title>background</title>
  <rect fill="none" id="canvas_background" height="1499" width="1499" y="-1" x="-1"/>
  <g display="none" overflow="visible" y="0" x="0" height="100%" width="100%" id="canvasGrid">
   <rect fill="url(#gridpattern)" stroke-width="0" y="381.272278" x="24.772278" height="734" width="1447"/>
  </g>
 </g>
 <g>
  <title>Layer 1</title>
  <g id="svg_6">
   <path id="svg_5" fill="#ffffff" d="m374.136127,0c206.6279,0 374.136127,167.506356 374.136127,374.136127l0,-374.136127l374.136127,0c206.6279,0 374.136127,167.506356 374.136127,374.136127c0,206.6279 -167.508227,374.136127 -374.136127,374.136127c206.6279,0 374.136127,167.508227 374.136127,374.136127c0,102.59935 -41.300887,195.553471 -108.181461,263.144903l-1.399269,1.410493l-1.242132,1.234649c-67.606398,66.977849 -160.627863,108.346081 -263.313265,108.346081c-101.985767,0 -194.442286,-40.807027 -261.932702,-106.984225c-0.875479,-0.860513 -1.750957,-1.728509 -2.622694,-2.596505c-0.819358,-0.819358 -1.634975,-1.642458 -2.44685,-2.469298c-66.263249,-67.50164 -107.13388,-160.021763 -107.13388,-262.086098c0,206.6279 -167.508227,374.136127 -374.136127,374.136127c-206.629771,0 -374.136127,-167.508227 -374.136127,-374.136127l0,-374.136127l374.136127,0c-206.629771,0 -374.136127,-167.508227 -374.136127,-374.136127c0,-206.629771 167.506356,-374.136127 374.136127,-374.136127zm299.308901,374.136127c0,165.304565 -134.004336,299.308901 -299.308901,299.308901l0,-598.617803c165.304565,0 299.308901,134.005085 299.308901,299.308901zm748.272253,748.272253c0,-165.304565 -134.004336,-299.308901 -299.308901,-299.308901c-165.304565,0 -299.308901,134.004336 -299.308901,299.308901l598.617803,0zm-1346.890056,-299.308901l0,299.308901c0,165.304565 134.005085,299.308901 299.308901,299.308901c165.304565,0 299.308901,-134.004336 299.308901,-299.308901l0,-299.308901l-598.617803,0zm748.272253,-149.654451l0,-598.617803l299.308901,0c165.304565,0 299.308901,134.005085 299.308901,299.308901c0,165.304565 -134.004336,299.308901 -299.308901,299.308901l-299.308901,0z" clip-rule="evenodd" fill-rule="evenodd" class="ccustom"/>
  </g>
 </g>
</svg>