<svg width="40" height="40" xmlns="http://www.w3.org/2000/svg" fill="none">

 <g>
  <title>background</title>
  <rect fill="none" id="canvas_background" height="780" width="1449" y="-1" x="-1"/>
 </g>
 <g>
  <title>Layer 1</title>
  <path id="svg_1" fill="#006688" d="m10,0c5.5228,0 10,4.47715 10,10l0,-10l10,0c5.5228,0 10,4.47715 10,10c0,5.5228 -4.4772,10 -10,10c5.5228,0 10,4.4772 10,10c0,2.7423 -1.1039,5.2268 -2.8915,7.0334l-0.0374,0.0377l-0.0332,0.033c-1.807,1.7902 -4.2933,2.8959 -7.0379,2.8959c-2.7259,0 -5.1971,-1.0907 -7.001,-2.8595c-0.0234,-0.023 -0.0468,-0.0462 -0.0701,-0.0694c-0.0219,-0.0219 -0.0437,-0.0439 -0.0654,-0.066c-1.7711,-1.8042 -2.8635,-4.2771 -2.8635,-7.0051c0,5.5228 -4.4772,10 -10,10c-5.52285,0 -10,-4.4772 -10,-10l0,-10l10,0c-5.52285,0 -10,-4.4772 -10,-10c0,-5.52285 4.47715,-10 10,-10zm8,10c0,4.4183 -3.5817,8 -8,8l0,-16c4.4183,0 8,3.58172 8,8zm20,20c0,-4.4183 -3.5817,-8 -8,-8c-4.4183,0 -8,3.5817 -8,8l16,0zm-36,-8l0,8c0,4.4183 3.58172,8 8,8c4.4183,0 8,-3.5817 8,-8l0,-8l-16,0zm20,-4l0,-16l8,0c4.4183,0 8,3.58172 8,8c0,4.4183 -3.5817,8 -8,8l-8,0z" clip-rule="evenodd" fill-rule="evenodd" class="ccustom"/>
 </g>
</svg>